<svg width="100%" height="100%" xmlns="http://www.w3.org/2000/svg">
  <defs>
    <pattern id="pattern1" patternUnits="userSpaceOnUse" width="50" height="50" patternTransform="rotate(45)">
      <rect width="50" height="50" fill="#121212"/>
      <rect width="25" height="25" fill="#0f0f0f"/>
      <rect x="25" y="25" width="25" height="25" fill="#0f0f0f"/>
    </pattern>
    
    <radialGradient id="fogGradient" cx="50%" cy="50%" r="50%" fx="50%" fy="50%">
      <stop offset="0%" stop-color="#000000" stop-opacity="0.2"/>
      <stop offset="100%" stop-color="#000000" stop-opacity="0"/>
    </radialGradient>
    
    <filter id="noise" x="0%" y="0%" width="100%" height="100%">
      <feTurbulence type="fractalNoise" baseFrequency="0.5" numOctaves="3" seed="1" stitchTiles="stitch" result="noise"/>
      <feColorMatrix type="matrix" values="1 0 0 0 0 0 1 0 0 0 0 0 1 0 0 0 0 0 0.05 0" in="noise" result="coloredNoise"/>
      <feComposite operator="in" in="coloredNoise" in2="SourceGraphic"/>
    </filter>
  </defs>
  
  <!-- Base pattern background -->
  <rect width="100%" height="100%" fill="url(#pattern1)"/>
  
  <!-- Fog/mist effects -->
  <rect width="100%" height="100%" fill="url(#fogGradient)" opacity="0.2"/>
  
  <!-- Subtle noise texture -->
  <rect width="100%" height="100%" fill="#121212" filter="url(#noise)" opacity="0.1"/>
  
  <!-- Subtle web in corner -->
  <path d="M0,0 L100,0 L50,50 Z" fill="none" stroke="#333" stroke-width="0.2" opacity="0.3"/>
  <path d="M0,0 L0,100 L50,50 Z" fill="none" stroke="#333" stroke-width="0.2" opacity="0.3"/>
  
  <!-- Additional subtle webs -->
  <path d="M50,50 L75,25 L100,0" fill="none" stroke="#333" stroke-width="0.2" opacity="0.2"/>
  <path d="M50,50 L25,75 L0,100" fill="none" stroke="#333" stroke-width="0.2" opacity="0.2"/>
  <path d="M50,50 L25,25 L0,0" fill="none" stroke="#333" stroke-width="0.2" opacity="0.2"/>
  <path d="M50,50 L75,75 L100,100" fill="none" stroke="#333" stroke-width="0.2" opacity="0.2"/>
  
  <!-- Subtle vignette -->
  <rect width="100%" height="100%" fill="none" stroke="#000000" stroke-width="100" opacity="0.4"/>
</svg>
